<mxfile host="app.diagrams.net" agent="Mozilla/5.0 (Macintosh; Intel Mac OS X 10_15_7) AppleWebKit/537.36 (KHTML, like Gecko) Chrome/135.0.0.0 Safari/537.36" version="26.2.13">
  <diagram name="Page-1" id="n2LfUsiWwHRVrM9eHV6c">
    <mxGraphModel dx="1133" dy="863" grid="1" gridSize="10" guides="1" tooltips="1" connect="1" arrows="1" fold="1" page="1" pageScale="1" pageWidth="1100" pageHeight="850" math="0" shadow="0">
      <root>
        <mxCell id="0" />
        <mxCell id="1" parent="0" />
        <mxCell id="2" value="Subset of ICSD-3" style="whiteSpace=wrap;strokeWidth=2;" parent="1" vertex="1">
          <mxGeometry x="365" y="30" width="132" height="54" as="geometry" />
        </mxCell>
        <mxCell id="3" value="NER model" style="whiteSpace=wrap;strokeWidth=2;" parent="1" vertex="1">
          <mxGeometry x="239" y="157" width="135" height="54" as="geometry" />
        </mxCell>
        <mxCell id="4" value="Predicted Annotations" style="whiteSpace=wrap;strokeWidth=2;" parent="1" vertex="1">
          <mxGeometry x="198" y="283" width="217" height="54" as="geometry" />
        </mxCell>
        <mxCell id="5" value="ICSD-3-SA-NER" style="whiteSpace=wrap;strokeWidth=2;" parent="1" vertex="1">
          <mxGeometry x="465" y="283" width="182" height="54" as="geometry" />
        </mxCell>
        <mxCell id="Kl4EgHemlpglW0hsyF5d-29" style="edgeStyle=orthogonalEdgeStyle;rounded=0;orthogonalLoop=1;jettySize=auto;html=1;exitX=0;exitY=0.25;exitDx=0;exitDy=0;entryX=1;entryY=0.25;entryDx=0;entryDy=0;" edge="1" parent="1" source="6" target="Kl4EgHemlpglW0hsyF5d-19">
          <mxGeometry relative="1" as="geometry">
            <Array as="points">
              <mxPoint x="332" y="422" />
            </Array>
          </mxGeometry>
        </mxCell>
        <mxCell id="Kl4EgHemlpglW0hsyF5d-31" value="More than 2&amp;nbsp;&lt;div&gt;entity labels?&lt;/div&gt;" style="edgeLabel;html=1;align=center;verticalAlign=middle;resizable=0;points=[];" vertex="1" connectable="0" parent="Kl4EgHemlpglW0hsyF5d-29">
          <mxGeometry x="-0.1542" y="1" relative="1" as="geometry">
            <mxPoint as="offset" />
          </mxGeometry>
        </mxCell>
        <mxCell id="Kl4EgHemlpglW0hsyF5d-68" value="" style="edgeStyle=orthogonalEdgeStyle;rounded=0;orthogonalLoop=1;jettySize=auto;html=1;" edge="1" parent="1" source="6" target="7">
          <mxGeometry relative="1" as="geometry" />
        </mxCell>
        <mxCell id="Kl4EgHemlpglW0hsyF5d-73" value="" style="edgeStyle=orthogonalEdgeStyle;rounded=0;orthogonalLoop=1;jettySize=auto;html=1;" edge="1" parent="1" source="6" target="7">
          <mxGeometry relative="1" as="geometry" />
        </mxCell>
        <mxCell id="6" value="Precision, recall, F1" style="whiteSpace=wrap;strokeWidth=2;" parent="1" vertex="1">
          <mxGeometry x="332" y="410" width="200" height="54" as="geometry" />
        </mxCell>
        <mxCell id="7" value="Performance Analysis" style="whiteSpace=wrap;strokeWidth=2;" parent="1" vertex="1">
          <mxGeometry x="326" y="542" width="212" height="54" as="geometry" />
        </mxCell>
        <mxCell id="12" value="Comparison" style="curved=1;startArrow=none;endArrow=block;exitX=0.5;exitY=1;entryX=0.76;entryY=-0.01;html=1;" parent="1" source="5" target="6" edge="1">
          <mxGeometry relative="1" as="geometry">
            <Array as="points">
              <mxPoint x="556" y="373" />
            </Array>
          </mxGeometry>
        </mxCell>
        <mxCell id="Kl4EgHemlpglW0hsyF5d-17" value="&lt;div style=&quot;&quot;&gt;en_core_sci_lg&lt;/div&gt;&lt;div&gt;en_core_sci_md&lt;/div&gt;&lt;div&gt;en_core_sci_scibert&lt;/div&gt;&lt;div&gt;en_core_sci_sm&lt;/div&gt;&lt;div&gt;en_ner_bc5cdr_md&lt;/div&gt;&lt;div&gt;&lt;span style=&quot;background-color: transparent;&quot;&gt;alvaroalon2/biobert_diseases_ner&lt;/span&gt;&lt;/div&gt;&lt;div&gt;dmis-lab/biobert-base-cased.v1.1&lt;/div&gt;&lt;div&gt;dmis-lab/biobert-base-cased.v1.2&lt;/div&gt;&lt;div&gt;...&lt;/div&gt;&lt;div&gt;&lt;br&gt;&lt;/div&gt;" style="text;html=1;align=right;verticalAlign=middle;resizable=0;points=[];autosize=1;strokeColor=none;fillColor=none;" vertex="1" parent="1">
          <mxGeometry y="104" width="200" height="160" as="geometry" />
        </mxCell>
        <mxCell id="Kl4EgHemlpglW0hsyF5d-30" style="edgeStyle=orthogonalEdgeStyle;rounded=0;orthogonalLoop=1;jettySize=auto;html=1;" edge="1" parent="1" source="Kl4EgHemlpglW0hsyF5d-19" target="6">
          <mxGeometry relative="1" as="geometry">
            <Array as="points">
              <mxPoint x="300" y="452" />
              <mxPoint x="300" y="452" />
            </Array>
          </mxGeometry>
        </mxCell>
        <mxCell id="Kl4EgHemlpglW0hsyF5d-19" value="Micro-, Macro-, Weighted Average" style="rounded=0;whiteSpace=wrap;html=1;strokeWidth=2;" vertex="1" parent="1">
          <mxGeometry x="100" y="407" width="120" height="60" as="geometry" />
        </mxCell>
        <mxCell id="Kl4EgHemlpglW0hsyF5d-46" style="edgeStyle=orthogonalEdgeStyle;rounded=0;orthogonalLoop=1;jettySize=auto;html=1;entryX=0.5;entryY=0;entryDx=0;entryDy=0;dashed=1;" edge="1" parent="1" source="Kl4EgHemlpglW0hsyF5d-33" target="Kl4EgHemlpglW0hsyF5d-45">
          <mxGeometry relative="1" as="geometry" />
        </mxCell>
        <mxCell id="Kl4EgHemlpglW0hsyF5d-47" value="Predicted labels" style="edgeLabel;html=1;align=center;verticalAlign=middle;resizable=0;points=[];" vertex="1" connectable="0" parent="Kl4EgHemlpglW0hsyF5d-46">
          <mxGeometry x="-0.2326" y="-3" relative="1" as="geometry">
            <mxPoint x="3" y="20" as="offset" />
          </mxGeometry>
        </mxCell>
        <mxCell id="Kl4EgHemlpglW0hsyF5d-33" value="google-bert/bert-base-cased" style="whiteSpace=wrap;html=1;fillColor=#e1d5e7;strokeColor=#9673a6;strokeWidth=2;" vertex="1" parent="1">
          <mxGeometry x="650" y="153" width="170" height="40" as="geometry" />
        </mxCell>
        <mxCell id="Kl4EgHemlpglW0hsyF5d-50" style="edgeStyle=orthogonalEdgeStyle;rounded=0;orthogonalLoop=1;jettySize=auto;html=1;entryX=0.5;entryY=0;entryDx=0;entryDy=0;dashed=1;" edge="1" parent="1" source="Kl4EgHemlpglW0hsyF5d-35" target="Kl4EgHemlpglW0hsyF5d-49">
          <mxGeometry relative="1" as="geometry" />
        </mxCell>
        <mxCell id="Kl4EgHemlpglW0hsyF5d-51" value="Label as O" style="edgeLabel;html=1;align=center;verticalAlign=middle;resizable=0;points=[];" vertex="1" connectable="0" parent="Kl4EgHemlpglW0hsyF5d-50">
          <mxGeometry x="0.204" relative="1" as="geometry">
            <mxPoint as="offset" />
          </mxGeometry>
        </mxCell>
        <mxCell id="Kl4EgHemlpglW0hsyF5d-35" value="All O" style="rounded=0;whiteSpace=wrap;html=1;fillColor=#e1d5e7;strokeColor=#9673a6;strokeWidth=2;" vertex="1" parent="1">
          <mxGeometry x="830" y="150" width="100" height="46" as="geometry" />
        </mxCell>
        <mxCell id="Kl4EgHemlpglW0hsyF5d-38" value="Random" style="rounded=0;whiteSpace=wrap;html=1;fillColor=#e1d5e7;strokeColor=#9673a6;strokeWidth=2;" vertex="1" parent="1">
          <mxGeometry x="950" y="150" width="90" height="46" as="geometry" />
        </mxCell>
        <mxCell id="Kl4EgHemlpglW0hsyF5d-39" value="" style="curved=1;startArrow=none;endArrow=block;exitX=1;exitY=0.75;entryX=0.5;entryY=0;exitDx=0;exitDy=0;entryDx=0;entryDy=0;dashed=1;" edge="1" parent="1" source="2" target="Kl4EgHemlpglW0hsyF5d-33">
          <mxGeometry relative="1" as="geometry">
            <Array as="points">
              <mxPoint x="681" y="86" />
              <mxPoint x="735" y="100" />
            </Array>
            <mxPoint x="610" y="50" as="sourcePoint" />
            <mxPoint x="681" y="249" as="targetPoint" />
          </mxGeometry>
        </mxCell>
        <mxCell id="Kl4EgHemlpglW0hsyF5d-58" value="Baseline" style="edgeLabel;html=1;align=center;verticalAlign=middle;resizable=0;points=[];" vertex="1" connectable="0" parent="Kl4EgHemlpglW0hsyF5d-39">
          <mxGeometry x="-0.0535" y="-9" relative="1" as="geometry">
            <mxPoint as="offset" />
          </mxGeometry>
        </mxCell>
        <mxCell id="Kl4EgHemlpglW0hsyF5d-40" value="" style="curved=1;startArrow=none;endArrow=block;exitX=1;exitY=0.648;exitDx=0;exitDy=0;entryX=0.5;entryY=0;entryDx=0;entryDy=0;exitPerimeter=0;dashed=1;" edge="1" parent="1" source="2" target="Kl4EgHemlpglW0hsyF5d-35">
          <mxGeometry relative="1" as="geometry">
            <Array as="points">
              <mxPoint x="670" y="70" />
              <mxPoint x="870" y="100" />
            </Array>
            <mxPoint x="505" y="104" as="sourcePoint" />
            <mxPoint x="940" y="100" as="targetPoint" />
          </mxGeometry>
        </mxCell>
        <mxCell id="Kl4EgHemlpglW0hsyF5d-59" value="Baseline" style="edgeLabel;html=1;align=center;verticalAlign=middle;resizable=0;points=[];" vertex="1" connectable="0" parent="Kl4EgHemlpglW0hsyF5d-40">
          <mxGeometry x="0.2437" y="1" relative="1" as="geometry">
            <mxPoint as="offset" />
          </mxGeometry>
        </mxCell>
        <mxCell id="Kl4EgHemlpglW0hsyF5d-41" value="" style="curved=1;startArrow=none;endArrow=block;entryX=0.5;entryY=0;entryDx=0;entryDy=0;exitX=1;exitY=0.25;exitDx=0;exitDy=0;dashed=1;" edge="1" parent="1" source="2" target="Kl4EgHemlpglW0hsyF5d-38">
          <mxGeometry relative="1" as="geometry">
            <Array as="points">
              <mxPoint x="900" y="40" />
              <mxPoint x="990" y="80" />
            </Array>
            <mxPoint x="500" y="50" as="sourcePoint" />
            <mxPoint x="586" y="313" as="targetPoint" />
          </mxGeometry>
        </mxCell>
        <mxCell id="Kl4EgHemlpglW0hsyF5d-60" value="Baseline" style="edgeLabel;html=1;align=center;verticalAlign=middle;resizable=0;points=[];" vertex="1" connectable="0" parent="Kl4EgHemlpglW0hsyF5d-41">
          <mxGeometry x="0.3628" y="-19" relative="1" as="geometry">
            <mxPoint as="offset" />
          </mxGeometry>
        </mxCell>
        <mxCell id="Kl4EgHemlpglW0hsyF5d-45" value="Predicted Annotations" style="whiteSpace=wrap;strokeWidth=2;fillColor=#e1d5e7;strokeColor=#9673a6;" vertex="1" parent="1">
          <mxGeometry x="660" y="279" width="150" height="57" as="geometry" />
        </mxCell>
        <mxCell id="Kl4EgHemlpglW0hsyF5d-49" value="_ → O&#xa;_ → O&#xa;_ → O&#xa;..." style="whiteSpace=wrap;strokeWidth=2;fillColor=#e1d5e7;strokeColor=#9673a6;" vertex="1" parent="1">
          <mxGeometry x="845" y="270.75" width="70" height="73.5" as="geometry" />
        </mxCell>
        <mxCell id="Kl4EgHemlpglW0hsyF5d-53" value="Random Annotations" style="whiteSpace=wrap;strokeWidth=2;fillColor=#e1d5e7;strokeColor=#9673a6;" vertex="1" parent="1">
          <mxGeometry x="930" y="279" width="150" height="57" as="geometry" />
        </mxCell>
        <mxCell id="Kl4EgHemlpglW0hsyF5d-54" style="edgeStyle=orthogonalEdgeStyle;rounded=0;orthogonalLoop=1;jettySize=auto;html=1;entryX=0.433;entryY=0;entryDx=0;entryDy=0;entryPerimeter=0;dashed=1;" edge="1" parent="1" source="Kl4EgHemlpglW0hsyF5d-38" target="Kl4EgHemlpglW0hsyF5d-53">
          <mxGeometry relative="1" as="geometry" />
        </mxCell>
        <mxCell id="Kl4EgHemlpglW0hsyF5d-55" value="Assign Random Label" style="edgeLabel;html=1;align=center;verticalAlign=middle;resizable=0;points=[];" vertex="1" connectable="0" parent="Kl4EgHemlpglW0hsyF5d-54">
          <mxGeometry x="0.2048" relative="1" as="geometry">
            <mxPoint as="offset" />
          </mxGeometry>
        </mxCell>
        <mxCell id="Kl4EgHemlpglW0hsyF5d-62" value="" style="shape=flexArrow;endArrow=classic;html=1;rounded=0;endWidth=9.523809523809524;endSize=4.457142857142856;strokeWidth=2;" edge="1" parent="1">
          <mxGeometry width="50" height="50" relative="1" as="geometry">
            <mxPoint x="209" y="183.51999999999998" as="sourcePoint" />
            <mxPoint x="239" y="184" as="targetPoint" />
          </mxGeometry>
        </mxCell>
        <mxCell id="Kl4EgHemlpglW0hsyF5d-63" value="Model input" style="curved=1;startArrow=none;endArrow=block;exitX=0.1;exitY=1;entryX=0.5;entryY=-0.01;html=1;" edge="1" parent="1">
          <mxGeometry relative="1" as="geometry">
            <Array as="points">
              <mxPoint x="307" y="120" />
            </Array>
            <mxPoint x="378" y="84" as="sourcePoint" />
            <mxPoint x="307" y="157" as="targetPoint" />
          </mxGeometry>
        </mxCell>
        <mxCell id="Kl4EgHemlpglW0hsyF5d-64" value="Predicted labels" style="curved=1;startArrow=none;endArrow=block;exitX=0.5;exitY=0.99;entryX=0.5;entryY=0;html=1;" edge="1" parent="1">
          <mxGeometry relative="1" as="geometry">
            <Array as="points" />
            <mxPoint x="307" y="211" as="sourcePoint" />
            <mxPoint x="307" y="283" as="targetPoint" />
          </mxGeometry>
        </mxCell>
        <mxCell id="Kl4EgHemlpglW0hsyF5d-65" value="Comparison" style="curved=1;startArrow=none;endArrow=block;exitX=0.5;exitY=1;entryX=0.23;entryY=-0.01;html=1;" edge="1" parent="1">
          <mxGeometry relative="1" as="geometry">
            <Array as="points">
              <mxPoint x="307" y="373" />
            </Array>
            <mxPoint x="307" y="337" as="sourcePoint" />
            <mxPoint x="379" y="410" as="targetPoint" />
          </mxGeometry>
        </mxCell>
        <mxCell id="Kl4EgHemlpglW0hsyF5d-67" value="Gold labels" style="curved=1;startArrow=none;endArrow=block;exitX=0.91;exitY=1;entryX=0.5;entryY=0;html=1;" edge="1" parent="1">
          <mxGeometry relative="1" as="geometry">
            <Array as="points">
              <mxPoint x="556" y="120" />
            </Array>
            <mxPoint x="485" y="84" as="sourcePoint" />
            <mxPoint x="556" y="283" as="targetPoint" />
          </mxGeometry>
        </mxCell>
        <mxCell id="Kl4EgHemlpglW0hsyF5d-69" value="Evaluation Results" style="curved=1;startArrow=none;endArrow=block;exitX=0.5;exitY=0.99;entryX=0.5;entryY=0;html=1;" edge="1" parent="1">
          <mxGeometry x="-0.0256" relative="1" as="geometry">
            <Array as="points" />
            <mxPoint x="432" y="464" as="sourcePoint" />
            <mxPoint x="432" y="542" as="targetPoint" />
            <mxPoint as="offset" />
          </mxGeometry>
        </mxCell>
        <mxCell id="Kl4EgHemlpglW0hsyF5d-70" value="Comparison" style="curved=1;startArrow=none;endArrow=block;entryX=1;entryY=0.25;entryDx=0;entryDy=0;dashed=1;html=1;" edge="1" parent="1">
          <mxGeometry relative="1" as="geometry">
            <Array as="points">
              <mxPoint x="740" y="400" />
            </Array>
            <mxPoint x="737" y="336" as="sourcePoint" />
            <mxPoint x="532" y="424" as="targetPoint" />
          </mxGeometry>
        </mxCell>
        <mxCell id="Kl4EgHemlpglW0hsyF5d-71" value="Comparison" style="curved=1;startArrow=none;endArrow=block;entryX=1;entryY=0.5;entryDx=0;entryDy=0;exitX=0.5;exitY=1;exitDx=0;exitDy=0;dashed=1;html=1;" edge="1" parent="1">
          <mxGeometry x="0.1271" y="1" relative="1" as="geometry">
            <Array as="points">
              <mxPoint x="870" y="410" />
            </Array>
            <mxPoint x="880" y="344" as="sourcePoint" />
            <mxPoint x="532" y="437" as="targetPoint" />
            <mxPoint as="offset" />
          </mxGeometry>
        </mxCell>
        <mxCell id="Kl4EgHemlpglW0hsyF5d-72" value="Comparison" style="curved=1;startArrow=none;endArrow=block;entryX=1;entryY=0.75;entryDx=0;entryDy=0;exitX=0.5;exitY=1;exitDx=0;exitDy=0;dashed=1;html=1;" edge="1" parent="1">
          <mxGeometry relative="1" as="geometry">
            <Array as="points">
              <mxPoint x="1000" y="380" />
              <mxPoint x="950" y="410" />
            </Array>
            <mxPoint x="1005" y="336" as="sourcePoint" />
            <mxPoint x="532" y="451" as="targetPoint" />
          </mxGeometry>
        </mxCell>
      </root>
    </mxGraphModel>
  </diagram>
</mxfile>
